<svg xmlns="http://www.w3.org/2000/svg" width="60" height="60" viewBox="0 0 32 32"><path fill="#e30613" d="M23.87 17.438c1.32-.475 2.372-1.533 2.372-3.26 0-2.005-1.487-3.507-4.611-3.507h-5.25l-1.148 5.317h-3.815l1.148-5.317H8.764L5.758 24.829H9.56l1.239-5.889h3.815l-1.239 5.889h6.764c3.374 0 5.523-1.968 5.523-4.543 0-1.621-1.063-2.491-1.792-2.848zm-4.538 4.884h-1.601l.782-3.682h1.324c1.243 0 1.892.501 1.892 1.616 0 1.417-1.024 2.066-2.396 2.066zm1.11-6.131h-1.41l.637-2.999h1.241c.931 0 1.567.351 1.567 1.302 0 1.125-.69 1.697-2.034 1.697zM10.423 8.837c.072-.339.158-.717.207-.93h-.007a54.326 54.326 0 01-.727 1.682h-.265c.005-.477.006-1.349.021-1.687h-.01c-.036.225-.115.634-.185.966l-.153.721h-.268l.41-1.925h.433c.018.521.021 1.192 0 1.436h.003c.084-.239.423-.961.651-1.436h.418l-.41 1.925h-.279l.16-.752zM12 8.701h-.626l-.133.634h.735l-.093.253h-.982l.41-1.925h.94l-.057.253h-.654l-.11.531h.626l-.055.254zm.527-1.037h.385c.519 0 .671.391.538 1.028-.126.607-.341.897-.843.897h-.491l.41-1.925zm-.07 1.689h.12c.3 0 .466-.123.577-.671.12-.589.027-.779-.294-.779h-.097l-.306 1.45zm1.784-1.689l-.41 1.925h-.29l.41-1.925h.29zm1.123 1.398c-.06.217-.204.558-.615.558-.396 0-.581-.304-.42-1.049.118-.545.341-.94.756-.94.423 0 .471.335.449.543h-.284c.002-.102.015-.299-.194-.299-.207 0-.346.279-.435.712-.11.532-.067.788.153.788.186 0 .274-.219.3-.313h.289zm.539-.007l-.226.534h-.294l.839-1.925h.391l.043 1.925h-.284l-.004-.534h-.467zm.461-.249c-.004-.411-.004-.735.004-.913h-.008c-.061.182-.196.519-.356.913h.359zm.883-1.142h.29l-.355 1.672h.667l-.081.253h-.931l.41-1.925zm2.422 1.398c-.06.217-.204.558-.615.558-.396 0-.582-.304-.42-1.049.118-.545.341-.94.756-.94.423 0 .472.335.449.543h-.284c.002-.102.015-.299-.194-.299-.207 0-.346.279-.435.712-.11.532-.067.788.153.788.186 0 .274-.219.3-.313h.289zm1.208-.361h-.626l-.133.634h.735l-.093.253h-.982l.41-1.925h.94l-.057.253h-.654l-.11.531h.626l-.055.254zm.117.888l.41-1.925h.339c.186 1.093.228 1.385.236 1.489h.003c.036-.241.105-.577.172-.892l.128-.597h.266l-.41 1.925h-.324c-.184-1.126-.226-1.455-.237-1.56h-.003c-.038.239-.103.588-.177.934l-.134.626h-.27zm2.092-1.672h-.406l.055-.253h1.1l-.055.253h-.404l-.355 1.672h-.29l.355-1.672zm1.648.784h-.626l-.133.634h.735l-.093.253h-.982l.41-1.925h.94l-.057.253h-.654l-.11.531h.626l-.055.254zm.586.031l-.18.857h-.29l.41-1.925h.49c.406 0 .545.26.473.58a.471.471 0 01-.348.385c.135.064.195.202.138.486-.045.228-.071.36-.076.474h-.277c-.002-.069.01-.194.071-.487.054-.266.006-.37-.211-.37h-.201zm.053-.24h.18c.201 0 .335-.053.379-.263.039-.189-.032-.326-.244-.326h-.19l-.124.588z"/><path fill="#fff" d="M7.071 23.959l.033-.152.612.002.097-.449-.612-.002.033-.152 1.449.004-.033.152-.695-.002-.097.449.695.002-.033.152-1.449-.004zm1.15-1.843l-.1.462.555.001.111-.513.136.021-.139.643-1.449-.004.137-.636h.142l-.105.485.47.001.1-.462.141.001zm.369-.617l.438.102-.033.152-1.376-.339.043-.197 1.523-.34-.035.161-.481.101-.078.36zm-.07-.329c-.373.079-.611.131-.73.149l-.001.005c.122.019.37.077.667.145l.065-.299zm-.708-.654l.033-.152 1.309.004.107-.495.135.022-.135.625-1.448-.004zm.36-1.01l-.067.309h-.142l.166-.769h.142l-.067.309 1.307.004-.033.152-1.306-.004zm.034-.813l.033-.152.612.002.097-.449-.612-.002.033-.152 1.449.004-.033.152-.695-.002-.097.449.695.002-.033.152-1.449-.004zm1.79-1.583l-.033.152-.552-.001a.107.107 0 00-.038.007l-.936.349.037-.171c.265-.094.634-.226.775-.268-.13-.049-.444-.185-.658-.275l.035-.161.783.359a.075.075 0 00.036.007l.551.002zm-1.172-1.285l.078-.361c.045-.207.202-.334.425-.334.194.001.259.09.271.171.061-.105.186-.215.41-.215.261.001.392.152.34.392l-.076.35-1.448-.004zm.67-.307c.038-.174-.03-.238-.185-.238-.145 0-.25.072-.282.217l-.039.178.472.001.034-.159zm.68.161l.04-.186c.035-.163-.049-.252-.239-.252-.194-.001-.311.094-.351.28l-.034.157.583.001zm-.226-1.768c.494.001.734.115.67.415-.062.285-.343.402-.843.401-.494-.001-.705-.141-.647-.412.062-.287.329-.405.82-.403zm-.142.659c.413.001.638-.078.675-.249.038-.177-.148-.251-.564-.252-.422-.001-.612.078-.649.25-.036.169.144.25.539.252zm-.478-1.085l.066-.308c.069-.319.333-.462.786-.461.492.001.734.132.658.487l-.062.286-1.449-.004zm1.346-.148l.027-.127c.055-.253-.138-.334-.549-.335-.385-.001-.575.093-.626.33l-.028.129 1.175.004zm.434-1.382l-.033.152-.552-.001a.107.107 0 00-.038.007l-.936.349.037-.171c.265-.094.634-.226.775-.268-.13-.049-.444-.185-.658-.275l.035-.161.783.359a.075.075 0 00.036.007l.551.001z"/></svg>