<!-- Generated by IcoMoon.io -->
<svg version="1.1" xmlns="http://www.w3.org/2000/svg" width="60" height="60" viewBox="0 0 32 32">
<title>healthy-body_logo-2</title>
<path fill="#e30613" d="M23.87 17.438c1.32-0.475 2.372-1.533 2.372-3.26 0-2.005-1.487-3.507-4.611-3.507h-5.25l-1.148 5.317h-3.815l1.148-5.317h-3.802l-3.006 14.158h3.802l1.239-5.889h3.815l-1.239 5.889h6.764c3.374 0 5.523-1.968 5.523-4.543 0-1.621-1.063-2.491-1.792-2.848zM19.332 22.322h-1.601l0.782-3.682h1.324c1.243 0 1.892 0.501 1.892 1.616 0 1.417-1.024 2.066-2.396 2.066zM20.442 16.191h-1.41l0.637-2.999h1.241c0.931 0 1.567 0.351 1.567 1.302 0 1.125-0.69 1.697-2.034 1.697z"></path>
<path fill="#e30613" d="M10.423 8.837c0.072-0.339 0.158-0.717 0.207-0.93h-0.007c-0.137 0.346-0.477 1.126-0.727 1.682h-0.265c0.005-0.477 0.006-1.349 0.021-1.687h-0.010c-0.036 0.225-0.115 0.634-0.185 0.966l-0.153 0.721h-0.268l0.41-1.925h0.433c0.018 0.521 0.021 1.192 0 1.436h0.003c0.084-0.239 0.423-0.961 0.651-1.436h0.418l-0.41 1.925h-0.279l0.16-0.752z"></path>
<path fill="#e30613" d="M12 8.701h-0.626l-0.133 0.634h0.735l-0.093 0.253h-0.982l0.41-1.925h0.94l-0.057 0.253h-0.654l-0.11 0.531h0.626l-0.055 0.254z"></path>
<path fill="#e30613" d="M12.527 7.664h0.385c0.519 0 0.671 0.391 0.538 1.028-0.126 0.607-0.341 0.897-0.843 0.897h-0.491l0.41-1.925zM12.457 9.353h0.12c0.3 0 0.466-0.123 0.577-0.671 0.12-0.589 0.027-0.779-0.294-0.779h-0.097l-0.306 1.45z"></path>
<path fill="#e30613" d="M14.241 7.664l-0.41 1.925h-0.29l0.41-1.925h0.29z"></path>
<path fill="#e30613" d="M15.364 9.062c-0.060 0.217-0.204 0.558-0.615 0.558-0.396 0-0.581-0.304-0.42-1.049 0.118-0.545 0.341-0.94 0.756-0.94 0.423 0 0.471 0.335 0.449 0.543h-0.284c0.002-0.102 0.015-0.299-0.194-0.299-0.207 0-0.346 0.279-0.435 0.712-0.11 0.532-0.067 0.788 0.153 0.788 0.186 0 0.274-0.219 0.3-0.313h0.289z"></path>
<path fill="#e30613" d="M15.903 9.055l-0.226 0.534h-0.294c0 0 0.839-1.925 0.839-1.925h0.391l0.043 1.925h-0.284l-0.004-0.534h-0.467zM16.364 8.806c-0.004-0.411-0.004-0.735 0.004-0.913h-0.008c-0.061 0.182-0.196 0.519-0.356 0.913h0.359z"></path>
<path fill="#e30613" d="M17.247 7.664h0.29l-0.355 1.672h0.667l-0.081 0.253h-0.931l0.41-1.925z"></path>
<path fill="#e30613" d="M19.669 9.062c-0.060 0.217-0.204 0.558-0.615 0.558-0.396 0-0.582-0.304-0.42-1.049 0.118-0.545 0.341-0.94 0.756-0.94 0.423 0 0.472 0.335 0.449 0.543h-0.284c0.002-0.102 0.015-0.299-0.194-0.299-0.207 0-0.346 0.279-0.435 0.712-0.11 0.532-0.067 0.788 0.153 0.788 0.186 0 0.274-0.219 0.3-0.313h0.289z"></path>
<path fill="#e30613" d="M20.877 8.701h-0.626l-0.133 0.634h0.735l-0.093 0.253h-0.982l0.41-1.925h0.94l-0.057 0.253h-0.654l-0.11 0.531h0.626l-0.055 0.254z"></path>
<path fill="#e30613" d="M20.994 9.589l0.41-1.925h0.339c0.186 1.093 0.228 1.385 0.236 1.489h0.003c0.036-0.241 0.105-0.577 0.172-0.892l0.128-0.597h0.266l-0.41 1.925h-0.324c-0.184-1.126-0.226-1.455-0.237-1.56h-0.003c-0.038 0.239-0.103 0.588-0.177 0.934l-0.134 0.626h-0.27z"></path>
<path fill="#e30613" d="M23.086 7.917h-0.406l0.055-0.253h1.1l-0.055 0.253h-0.404l-0.355 1.672h-0.29l0.355-1.672z"></path>
<path fill="#e30613" d="M24.734 8.701h-0.626l-0.133 0.634h0.735l-0.093 0.253h-0.982l0.41-1.925h0.94l-0.057 0.253h-0.654l-0.11 0.531h0.626l-0.055 0.254z"></path>
<path fill="#e30613" d="M25.32 8.732l-0.18 0.857h-0.29l0.41-1.925h0.49c0.406 0 0.545 0.26 0.473 0.58-0.061 0.274-0.235 0.351-0.348 0.385 0.135 0.064 0.195 0.202 0.138 0.486-0.045 0.228-0.071 0.36-0.076 0.474h-0.277c-0.002-0.069 0.010-0.194 0.071-0.487 0.054-0.266 0.006-0.37-0.211-0.37h-0.201zM25.373 8.492h0.18c0.201 0 0.335-0.053 0.379-0.263 0.039-0.189-0.032-0.326-0.244-0.326h-0.19l-0.124 0.588z"></path>
<path fill="#fff" d="M7.071 23.959l0.033-0.152 0.612 0.002 0.097-0.449-0.612-0.002 0.033-0.152 1.449 0.004-0.033 0.152-0.695-0.002-0.097 0.449 0.695 0.002-0.033 0.152-1.449-0.004z"></path>
<path fill="#fff" d="M8.221 22.116l-0.1 0.462 0.555 0.001 0.111-0.513 0.136 0.021-0.139 0.643-1.449-0.004 0.137-0.636 0.142 0-0.105 0.485 0.47 0.001 0.1-0.462 0.141 0.001z"></path>
<path fill="#fff" d="M8.59 21.499l0.438 0.102-0.033 0.152c0 0-1.376-0.339-1.376-0.339l0.043-0.197 1.523-0.34-0.035 0.161-0.481 0.101-0.078 0.36zM8.52 21.17c-0.373 0.079-0.611 0.131-0.73 0.149l-0.001 0.005c0.122 0.019 0.37 0.077 0.667 0.145l0.065-0.299z"></path>
<path fill="#fff" d="M7.812 20.516l0.033-0.152 1.309 0.004 0.107-0.495 0.135 0.022-0.135 0.625-1.448-0.004z"></path>
<path fill="#fff" d="M8.172 19.506l-0.067 0.309-0.142-0 0.166-0.769 0.142 0-0.067 0.309 1.307 0.004-0.033 0.152-1.306-0.004z"></path>
<path fill="#fff" d="M8.206 18.693l0.033-0.152 0.612 0.002 0.097-0.449-0.612-0.002 0.033-0.152 1.449 0.004-0.033 0.152-0.695-0.002-0.097 0.449 0.695 0.002-0.033 0.152-1.449-0.004z"></path>
<path fill="#fff" d="M9.996 17.11l-0.033 0.152-0.552-0.001c-0.014 0-0.028 0.003-0.038 0.007l-0.936 0.349 0.037-0.171c0.265-0.094 0.634-0.226 0.775-0.268-0.13-0.049-0.444-0.185-0.658-0.275l0.035-0.161 0.783 0.359c0.007 0.004 0.019 0.007 0.036 0.007l0.551 0.002z"></path>
<path fill="#fff" d="M8.824 15.825l0.078-0.361c0.045-0.207 0.202-0.334 0.425-0.334 0.194 0.001 0.259 0.090 0.271 0.171 0.061-0.105 0.186-0.215 0.41-0.215 0.261 0.001 0.392 0.152 0.34 0.392l-0.076 0.35-1.448-0.004zM9.494 15.518c0.038-0.174-0.030-0.238-0.185-0.238-0.145-0-0.25 0.072-0.282 0.217l-0.039 0.178 0.472 0.001 0.034-0.159zM10.174 15.679l0.040-0.186c0.035-0.163-0.049-0.252-0.239-0.252-0.194-0.001-0.311 0.094-0.351 0.28l-0.034 0.157 0.583 0.001z"></path>
<path fill="#fff" d="M9.948 13.911c0.494 0.001 0.734 0.115 0.67 0.415-0.062 0.285-0.343 0.402-0.843 0.401-0.494-0.001-0.705-0.141-0.647-0.412 0.062-0.287 0.329-0.405 0.82-0.403zM9.806 14.57c0.413 0.001 0.638-0.078 0.675-0.249 0.038-0.177-0.148-0.251-0.564-0.252-0.422-0.001-0.612 0.078-0.649 0.25-0.036 0.169 0.144 0.25 0.539 0.252z"></path>
<path fill="#fff" d="M9.328 13.485l0.066-0.308c0.069-0.319 0.333-0.462 0.786-0.461 0.492 0.001 0.734 0.132 0.658 0.487l-0.062 0.286-1.449-0.004zM10.674 13.337l0.027-0.127c0.055-0.253-0.138-0.334-0.549-0.335-0.385-0.001-0.575 0.093-0.626 0.33l-0.028 0.129 1.175 0.004z"></path>
<path fill="#fff" d="M11.108 11.955l-0.033 0.152-0.552-0.001c-0.014 0-0.028 0.003-0.038 0.007l-0.936 0.349 0.037-0.171c0.265-0.094 0.634-0.226 0.775-0.268-0.13-0.049-0.444-0.185-0.658-0.275l0.035-0.161 0.783 0.359c0.007 0.004 0.019 0.007 0.036 0.007l0.551 0.001z"></path>
</svg>
