<svg height="128" id="Layer_1" version="1.1" width="128" xml:space="preserve" xmlns="http://www.w3.org/2000/svg"><path d="M106.001 48.07c-5.935 0-10.86 4.334-11.817 10h-.151c-8.822 0-15.999 7.178-15.999 16V108c0 8.822-7.17 16-15.98 16-8.811 0-15.979-7.178-15.979-16V69.823c16.886-2.861 29.986-41.059 31.939-53.514.51-3.256-.466-6.52-2.748-9.188C72.521 3.915 68.328 2 64.05 2h-5.62c0-1.104-5.993-2-5.993-2a1.999 1.999 0 00-1.998 2v4a2 2 0 001.998 2s5.993-.896 5.993-2h5.62c3.078 0 6.21 1.426 8.175 3.722 1.068 1.25 2.254 3.299 1.836 5.969C71.719 30.624 57.596 66 44.073 66c-13.525 0-27.647-35.376-29.988-50.31-.418-2.669.767-4.718 1.835-5.967C17.884 7.426 21.017 6 24.095 6h6.366c0 1.104 5.993 2 5.993 2a2 2 0 001.998-2V2a2 2 0 00-1.998-2s-5.993.896-5.993 2h-6.366c-4.279 0-8.472 1.915-11.215 5.123-2.282 2.668-3.258 5.931-2.747 9.187 1.952 12.455 15.052 50.652 31.94 53.514V108c0 11.027 8.963 20 19.979 20 11.017 0 19.98-8.973 19.98-20V74.07c0-6.617 5.383-12 11.999-12h.15c.957 5.667 5.885 10 11.818 10 6.616 0 11.999-5.383 11.999-12 .002-6.616-5.381-12-11.997-12zm0 22c-4.829 0-8.868-3.441-9.798-8h6.354c.692 1.19 1.969 2 3.444 2a4 4 0 000-8c-1.478 0-2.752.81-3.444 2h-6.354c.93-4.559 4.969-8 9.798-8 5.515 0 9.999 4.486 9.999 10s-4.484 10-9.999 10z" fill="#221F1F"/></svg>