<svg xmlns="http://www.w3.org/2000/svg" xmlns:xlink="http://www.w3.org/1999/xlink" width="752" height="32"><svg id="arrow-up" width="32" height="32" x="0" y="0"><path d="M16 26.667C10.12 26.667 5.333 21.88 5.333 16S10.12 5.333 16 5.333 26.667 10.12 26.667 16 21.88 26.667 16 26.667zm0 2.666c7.36 0 13.333-5.973 13.333-13.333S23.36 2.667 16 2.667 2.667 8.64 2.667 16 8.64 29.333 16 29.333zM14.667 16v5.333h2.667V16h4l-5.333-5.333L10.668 16h4z"/></svg><svg id="phone" viewBox="0 0 32 32"><path d="M22 20c-2 2-2 4-4 4s-4-2-6-4-4-4-4-6 2-2 4-4-4-8-6-8-6 6-6 6c0 4 4.109 12.109 8 16s12 8 16 8c0 0 6-4 6-6s-6-8-8-6z"/></svg><svg id="user" viewBox="0 0 32 32"><path d="M18 22.082v-1.649c2.203-1.241 4-4.337 4-7.432 0-4.971 0-9-6-9s-6 4.029-6 9c0 3.096 1.797 6.191 4 7.432v1.649C7.216 22.637 2 25.97 2 30h28c0-4.03-5.216-7.364-12-7.918z"/></svg><svg id="healthy-body-logo" viewBox="0 0 32 32" x="0" y="0"><path fill="#e30613" d="M23.87 17.438c1.32-.475 2.372-1.533 2.372-3.26 0-2.005-1.487-3.507-4.611-3.507h-5.25l-1.148 5.317h-3.815l1.148-5.317H8.764L5.758 24.829H9.56l1.239-5.889h3.815l-1.239 5.889h6.764c3.374 0 5.523-1.968 5.523-4.543 0-1.621-1.063-2.491-1.792-2.848zm-4.538 4.884h-1.601l.782-3.682h1.324c1.243 0 1.892.501 1.892 1.616 0 1.417-1.024 2.066-2.396 2.066zm1.11-6.131h-1.41l.637-2.999h1.241c.931 0 1.567.351 1.567 1.302 0 1.125-.69 1.697-2.034 1.697zM10.423 8.837c.072-.339.158-.717.207-.93h-.007a54.326 54.326 0 01-.727 1.682h-.265c.005-.477.006-1.349.021-1.687h-.01c-.036.225-.115.634-.185.966l-.153.721h-.268l.41-1.925h.433c.018.521.021 1.192 0 1.436h.003c.084-.239.423-.961.651-1.436h.418l-.41 1.925h-.279l.16-.752zM12 8.701h-.626l-.133.634h.735l-.093.253h-.982l.41-1.925h.94l-.057.253h-.654l-.11.531h.626l-.055.254zm.527-1.037h.385c.519 0 .671.391.538 1.028-.126.607-.341.897-.843.897h-.491l.41-1.925zm-.07 1.689h.12c.3 0 .466-.123.577-.671.12-.589.027-.779-.294-.779h-.097l-.306 1.45zm1.784-1.689l-.41 1.925h-.29l.41-1.925h.29zm1.123 1.398c-.06.217-.204.558-.615.558-.396 0-.581-.304-.42-1.049.118-.545.341-.94.756-.94.423 0 .471.335.449.543h-.284c.002-.102.015-.299-.194-.299-.207 0-.346.279-.435.712-.11.532-.067.788.153.788.186 0 .274-.219.3-.313h.289zm.539-.007l-.226.534h-.294l.839-1.925h.391l.043 1.925h-.284l-.004-.534h-.467zm.461-.249c-.004-.411-.004-.735.004-.913h-.008c-.061.182-.196.519-.356.913h.359zm.883-1.142h.29l-.355 1.672h.667l-.081.253h-.931l.41-1.925zm2.422 1.398c-.06.217-.204.558-.615.558-.396 0-.582-.304-.42-1.049.118-.545.341-.94.756-.94.423 0 .472.335.449.543h-.284c.002-.102.015-.299-.194-.299-.207 0-.346.279-.435.712-.11.532-.067.788.153.788.186 0 .274-.219.3-.313h.289zm1.208-.361h-.626l-.133.634h.735l-.093.253h-.982l.41-1.925h.94l-.057.253h-.654l-.11.531h.626l-.055.254zm.117.888l.41-1.925h.339c.186 1.093.228 1.385.236 1.489h.003c.036-.241.105-.577.172-.892l.128-.597h.266l-.41 1.925h-.324c-.184-1.126-.226-1.455-.237-1.56h-.003c-.038.239-.103.588-.177.934l-.134.626h-.27zm2.092-1.672h-.406l.055-.253h1.1l-.055.253h-.404l-.355 1.672h-.29l.355-1.672zm1.648.784h-.626l-.133.634h.735l-.093.253h-.982l.41-1.925h.94l-.057.253h-.654l-.11.531h.626l-.055.254zm.586.031l-.18.857h-.29l.41-1.925h.49c.406 0 .545.26.473.58a.471.471 0 01-.348.385c.135.064.195.202.138.486-.045.228-.071.36-.076.474h-.277c-.002-.069.01-.194.071-.487.054-.266.006-.37-.211-.37h-.201zm.053-.24h.18c.201 0 .335-.053.379-.263.039-.189-.032-.326-.244-.326h-.19l-.124.588z"/><path fill="#fff" d="M7.071 23.959l.033-.152.612.002.097-.449-.612-.002.033-.152 1.449.004-.033.152-.695-.002-.097.449.695.002-.033.152-1.449-.004zm1.15-1.843l-.1.462.555.001.111-.513.136.021-.139.643-1.449-.004.137-.636h.142l-.105.485.47.001.1-.462.141.001zm.369-.617l.438.102-.033.152-1.376-.339.043-.197 1.523-.34-.035.161-.481.101-.078.36zm-.07-.329c-.373.079-.611.131-.73.149l-.001.005c.122.019.37.077.667.145l.065-.299zm-.708-.654l.033-.152 1.309.004.107-.495.135.022-.135.625-1.448-.004zm.36-1.01l-.067.309h-.142l.166-.769h.142l-.067.309 1.307.004-.033.152-1.306-.004zm.034-.813l.033-.152.612.002.097-.449-.612-.002.033-.152 1.449.004-.033.152-.695-.002-.097.449.695.002-.033.152-1.449-.004zm1.79-1.583l-.033.152-.552-.001a.107.107 0 00-.038.007l-.936.349.037-.171c.265-.094.634-.226.775-.268-.13-.049-.444-.185-.658-.275l.035-.161.783.359a.075.075 0 00.036.007l.551.002zm-1.172-1.285l.078-.361c.045-.207.202-.334.425-.334.194.001.259.09.271.171.061-.105.186-.215.41-.215.261.001.392.152.34.392l-.076.35-1.448-.004zm.67-.307c.038-.174-.03-.238-.185-.238-.145 0-.25.072-.282.217l-.039.178.472.001.034-.159zm.68.161l.04-.186c.035-.163-.049-.252-.239-.252-.194-.001-.311.094-.351.28l-.034.157.583.001zm-.226-1.768c.494.001.734.115.67.415-.062.285-.343.402-.843.401-.494-.001-.705-.141-.647-.412.062-.287.329-.405.82-.403zm-.142.659c.413.001.638-.078.675-.249.038-.177-.148-.251-.564-.252-.422-.001-.612.078-.649.25-.036.169.144.25.539.252zm-.478-1.085l.066-.308c.069-.319.333-.462.786-.461.492.001.734.132.658.487l-.062.286-1.449-.004zm1.346-.148l.027-.127c.055-.253-.138-.334-.549-.335-.385-.001-.575.093-.626.33l-.028.129 1.175.004zm.434-1.382l-.033.152-.552-.001a.107.107 0 00-.038.007l-.936.349.037-.171c.265-.094.634-.226.775-.268-.13-.049-.444-.185-.658-.275l.035-.161.783.359a.075.075 0 00.036.007l.551.001z"/></svg><svg id="hospital" viewBox="0 0 32 32" x="0" y="0"><path d="M19.246 7.378h-1.638V5.74a.5.5 0 00-.5-.5h-2.216a.5.5 0 00-.5.5v1.638h-1.638a.5.5 0 00-.5.5v2.216a.5.5 0 00.5.5h1.638v1.639a.5.5 0 00.5.5h2.216a.5.5 0 00.5-.5v-1.639h1.638a.5.5 0 00.5-.5V7.878a.5.5 0 00-.5-.5zm-.5 2.216h-1.638a.5.5 0 00-.5.5v1.639h-1.216v-1.639a.5.5 0 00-.5-.5h-1.638V8.378h1.638a.5.5 0 00.5-.5V6.24h1.216v1.638a.5.5 0 00.5.5h1.638zM1.479 12.156a.5.5 0 00-.5.5V31.5a.5.5 0 001 0V12.656a.5.5 0 00-.5-.5zm6.418.875H3.505a.5.5 0 00-.5.5v1.867a.5.5 0 00.5.5h4.392a.5.5 0 00.5-.5v-1.867a.5.5 0 00-.5-.5zm-.5 1.866H4.005v-.867H7.4zm.5 2.736H3.505a.5.5 0 00-.5.5V20a.5.5 0 00.5.5H7.9a.5.5 0 00.5-.5v-1.867a.5.5 0 00-.5-.5h-.003zm-.5 1.867H4.005v-.867H7.4zm10.799.633h-4.392a.5.5 0 00-.5.5V31.5a.5.5 0 001 0V21.133h3.392V31.5a.5.5 0 001 0V20.633a.5.5 0 00-.5-.5zM7.897 22.236H3.505a.5.5 0 00-.5.5v1.867a.5.5 0 00.5.5h4.392a.5.5 0 00.5-.5v-1.869a.5.5 0 00-.5-.497zm-.5 1.867H4.005v-.867H7.4zm.5 2.735H3.505a.5.5 0 00-.5.5v1.867a.5.5 0 00.5.5h4.392a.5.5 0 00.5-.5v-1.867a.5.5 0 00-.5-.5zm-.5 1.867H4.005v-.867H7.4zm23.124-16.549a.5.5 0 00-.5.5V31.5a.5.5 0 001 0V12.656a.5.5 0 00-.5-.5z"/><path d="M31.5 8.486h-9.261V4.08h1.575a.5.5 0 00.5-.5V.5a.5.5 0 00-.5-.5H8.186a.5.5 0 00-.5.5v3.08a.5.5 0 00.5.5h1.575v4.406H.5a.5.5 0 00-.5.495l-.021 2.26v.004c0 .276.224.5.5.501h9.282V31.5a.5.5 0 001 0V4.08h1.4a.5.5 0 000-1H8.686V1h14.628v2.08h-9.341a.5.5 0 000 1h7.267V31.5a.5.5 0 001 0V11.746h9.261a.5.5 0 00.5-.5v-2.26a.5.5 0 00-.5-.5zM.984 10.746l.011-1.26h8.766v1.26zm30.016 0h-8.761v-1.26H31z"/><path d="M28.495 13.031h-4.392a.5.5 0 00-.5.5v1.867a.5.5 0 00.5.5h4.392a.5.5 0 00.5-.5v-1.867a.5.5 0 00-.5-.5zm-.5 1.866H24.6v-.867h3.392zm.5 2.736h-4.392a.5.5 0 00-.5.5V20a.5.5 0 00.5.5h4.392a.5.5 0 00.5-.5v-1.867a.5.5 0 00-.5-.5zm-.5 1.867H24.6v-.867h3.392zm.5 2.736h-4.392a.5.5 0 00-.5.5v1.867a.5.5 0 00.5.5h4.392a.5.5 0 00.5-.5v-1.869a.5.5 0 00-.5-.497zm-.5 1.867H24.6v-.867h3.392zm.5 2.735h-4.392a.5.5 0 00-.5.5v1.867a.5.5 0 00.5.5h4.392a.5.5 0 00.5-.5v-1.867a.5.5 0 00-.5-.5zm-.5 1.867H24.6v-.867h3.392zm-9.799-13.806h-4.392a.5.5 0 000 1h4.392a.5.5 0 000-1zm0 2.616h-4.392a.5.5 0 000 1h4.392a.5.5 0 000-1z"/></svg><svg id="doctor-bag" viewBox="0 0 32 32" x="0" y="0"><path d="M18.667 2.667h-5.333a4 4 0 00-4 4V8H6.667a4 4 0 00-4 4v13.333a4 4 0 004 4h18.667a4 4 0 004-4V12a4 4 0 00-4-4h-2.667V6.667a4 4 0 00-4-4zm-6.667 4c0-.736.597-1.333 1.333-1.333h5.333c.736 0 1.333.597 1.333 1.333V8h-8zM26.667 12v13.333c0 .736-.597 1.333-1.333 1.333H6.667a1.333 1.333 0 01-1.333-1.333V12c0-.736.597-1.333 1.333-1.333h18.667c.736 0 1.333.597 1.333 1.333zm-9.334 5.333H20V20h-2.667v2.667h-2.667V20h-2.667v-2.667h2.667v-2.667h2.667z"/></svg><svg id="doctor-stethoscope" viewBox="0 0 32 32" x="0" y="0"><path d="M26.5 12.018a3 3 0 00-2.954 2.5h-.038c-2.206 0-4 1.795-4 4v8.483c0 2.206-1.793 4-3.995 4s-3.995-1.794-3.995-4v-9.544c4.221-.715 7.497-10.265 7.985-13.379.128-.814-.116-1.63-.687-2.297a3.734 3.734 0 00-2.804-1.28h-1.405c0-.276-1.498-.5-1.498-.5a.5.5 0 00-.499.5v1a.5.5 0 00.499.5s1.498-.224 1.498-.5h1.405c.77 0 1.552.357 2.044.93.267.313.564.825.459 1.492C17.93 7.656 14.399 16.5 11.018 16.5S4.106 7.656 3.521 3.922c-.104-.667.192-1.179.459-1.492a2.755 2.755 0 012.044-.931h1.591c0 .276 1.498.5 1.498.5a.5.5 0 00.499-.5v-1a.5.5 0 00-.499-.5s-1.498.224-1.498.5H6.024A3.73 3.73 0 003.22 1.78c-.571.667-.814 1.483-.687 2.297.488 3.114 3.763 12.663 7.985 13.378v9.544c0 2.757 2.241 5 4.995 5s4.995-2.243 4.995-5v-8.483c0-1.654 1.346-3 3-3h.038a3.001 3.001 0 002.954 2.5c1.654 0 3-1.346 3-3s-1.345-3-2.999-3zm0 5.499a2.505 2.505 0 01-2.45-2h1.588a.997.997 0 001.861-.5.997.997 0 00-1.861-.5H24.05c.233-1.14 1.242-2 2.45-2 1.379 0 2.5 1.121 2.5 2.5s-1.121 2.5-2.5 2.5z"/></svg><svg id="plus-icon" viewBox="0 0 32 32" x="0" y="0"><path d="M23.813 14.75H17.25V8.187c0-.688-.563-1.25-1.25-1.25s-1.25.563-1.25 1.25v6.563H8.187c-.688 0-1.25.563-1.25 1.25s.563 1.25 1.25 1.25h6.563v6.563c0 .688.563 1.25 1.25 1.25s1.25-.563 1.25-1.25V17.25h6.563c.688 0 1.25-.563 1.25-1.25s-.563-1.25-1.25-1.25z"/></svg><svg id="location-icon" viewBox="0 0 32 32" x="0" y="0"><path d="M15.999 0C9.504 0 4.219 5.285 4.219 11.781c0 1.694.347 3.312 1.03 4.809 2.945 6.445 8.593 13.25 10.254 15.182a.657.657 0 00.994 0c1.66-1.932 7.308-8.736 10.254-15.182a11.483 11.483 0 001.03-4.809C27.78 5.285 22.495 0 16 0zm0 17.9c-3.374 0-6.119-2.745-6.119-6.119s2.745-6.12 6.119-6.12 6.119 2.745 6.119 6.12a6.126 6.126 0 01-6.119 6.119z"/></svg></svg>