<svg xmlns="http://www.w3.org/2000/svg" xmlns:xlink="http://www.w3.org/1999/xlink" width="752" height="32"><svg id="location-icon" width="32" height="32" x="0" y="0"><path d="M15.999 0C9.504 0 4.219 5.285 4.219 11.781c0 1.694.347 3.312 1.03 4.809 2.945 6.445 8.593 13.25 10.254 15.182a.657.657 0 00.994 0c1.66-1.932 7.308-8.736 10.254-15.182a11.483 11.483 0 001.03-4.809C27.78 5.285 22.495 0 16 0zm0 17.9c-3.374 0-6.119-2.745-6.119-6.119s2.745-6.12 6.119-6.12 6.119 2.745 6.119 6.12a6.126 6.126 0 01-6.119 6.119z"/></svg></svg>