<?xml version="1.0" encoding="utf-8"?>
<!-- Generated by IcoMoon.io -->
<svg version="1.1" xmlns="http://www.w3.org/2000/svg" xmlns:xlink="http://www.w3.org/1999/xlink" width="752" height="32" viewBox="0 0 752 32">
    <svg id="minus-icon"  viewBox="0 0 32 32" x="0" y="0">
        <path d="M25.333 17.333h-18.667c-0.736 0-1.333-0.597-1.333-1.333s0.597-1.333 1.333-1.333v0h18.667c0.736 0 1.333 0.597 1.333 1.333s-0.597 1.333-1.333 1.333v0z"></path>
    </svg>
    <svg id="plus-icon"  viewBox="0 0 32 32" x="0" y="0">
        <path d="M23.813 14.75h-6.563v-6.563c0-0.688-0.563-1.25-1.25-1.25s-1.25 0.563-1.25 1.25v6.563h-6.563c-0.688 0-1.25 0.563-1.25 1.25s0.563 1.25 1.25 1.25h6.563v6.563c0 0.688 0.563 1.25 1.25 1.25s1.25-0.563 1.25-1.25v-6.563h6.563c0.688 0 1.25-0.563 1.25-1.25s-0.563-1.25-1.25-1.25z"></path>
    </svg>
</svg>