<?xml version="1.0" encoding="utf-8"?>
<!-- Generated by IcoMoon.io -->
<svg version="1.1" xmlns="http://www.w3.org/2000/svg" xmlns:xlink="http://www.w3.org/1999/xlink" width="752" height="32" viewBox="0 0 752 32">
<svg id="location-icon" width="32" height="32" viewBox="0 0 32 32" x="0" y="0">
<path d="M15.999 0c-6.495 0-11.78 5.285-11.78 11.781 0 1.694 0.347 3.312 1.030 4.809 2.945 6.445 8.593 13.25 10.254 15.182 0.124 0.144 0.306 0.228 0.497 0.228s0.372-0.083 0.497-0.228c1.66-1.932 7.308-8.736 10.254-15.182 0.684-1.497 1.030-3.114 1.030-4.809-0.001-6.496-5.286-11.781-11.781-11.781zM15.999 17.9c-3.374 0-6.119-2.745-6.119-6.119s2.745-6.12 6.119-6.12 6.119 2.745 6.119 6.12c0 3.374-2.745 6.119-6.119 6.119z"></path>
</svg>
</svg>
