<?xml version="1.0" encoding="utf-8"?>
<!-- Generated by IcoMoon.io -->
<svg version="1.1" xmlns="http://www.w3.org/2000/svg" xmlns:xlink="http://www.w3.org/1999/xlink" width="752" height="32" viewBox="0 0 752 32">
    <svg id="arrow-up" width="32" height="32" viewBox="0 0 32 32" x="0" y="0">
        <path d="M16 26.667c-5.88 0-10.667-4.787-10.667-10.667s4.787-10.667 10.667-10.667 10.667 4.787 10.667 10.667-4.787 10.667-10.667 10.667zM16 29.333c7.36 0 13.333-5.973 13.333-13.333s-5.973-13.333-13.333-13.333c-7.36 0-13.333 5.973-13.333 13.333s5.973 13.333 13.333 13.333v0zM14.667 16v5.333h2.667v-5.333h4l-5.333-5.333-5.333 5.333h4z"></path>
    </svg>
    <svg id="phone" viewBox="0 0 32 32">
        <path d="M22 20c-2 2-2 4-4 4s-4-2-6-4-4-4-4-6 2-2 4-4-4-8-6-8-6 6-6 6c0 4 4.109 12.109 8 16s12 8 16 8c0 0 6-4 6-6s-6-8-8-6z"></path>
    </svg>
    <svg id="user" viewBox="0 0 32 32">
        <path d="M18 22.082v-1.649c2.203-1.241 4-4.337 4-7.432 0-4.971 0-9-6-9s-6 4.029-6 9c0 3.096 1.797 6.191 4 7.432v1.649c-6.784 0.555-12 3.888-12 7.918h28c0-4.030-5.216-7.364-12-7.918z"></path>
    </svg>
    <svg id="healthy-body-logo"  viewBox="0 0 32 32" x="0" y="0">
        <path fill="#e30613" d="M23.87 17.438c1.32-0.475 2.372-1.533 2.372-3.26 0-2.005-1.487-3.507-4.611-3.507h-5.25l-1.148 5.317h-3.815l1.148-5.317h-3.802l-3.006 14.158h3.802l1.239-5.889h3.815l-1.239 5.889h6.764c3.374 0 5.523-1.968 5.523-4.543 0-1.621-1.063-2.491-1.792-2.848zM19.332 22.322h-1.601l0.782-3.682h1.324c1.243 0 1.892 0.501 1.892 1.616 0 1.417-1.024 2.066-2.396 2.066zM20.442 16.191h-1.41l0.637-2.999h1.241c0.931 0 1.567 0.351 1.567 1.302 0 1.125-0.69 1.697-2.034 1.697z"></path>
        <path fill="#e30613" d="M10.423 8.837c0.072-0.339 0.158-0.717 0.207-0.93h-0.007c-0.137 0.346-0.477 1.126-0.727 1.682h-0.265c0.005-0.477 0.006-1.349 0.021-1.687h-0.010c-0.036 0.225-0.115 0.634-0.185 0.966l-0.153 0.721h-0.268l0.41-1.925h0.433c0.018 0.521 0.021 1.192 0 1.436h0.003c0.084-0.239 0.423-0.961 0.651-1.436h0.418l-0.41 1.925h-0.279l0.16-0.752z"></path>
        <path fill="#e30613" d="M12 8.701h-0.626l-0.133 0.634h0.735l-0.093 0.253h-0.982l0.41-1.925h0.94l-0.057 0.253h-0.654l-0.11 0.531h0.626l-0.055 0.254z"></path>
        <path fill="#e30613" d="M12.527 7.664h0.385c0.519 0 0.671 0.391 0.538 1.028-0.126 0.607-0.341 0.897-0.843 0.897h-0.491l0.41-1.925zM12.457 9.353h0.12c0.3 0 0.466-0.123 0.577-0.671 0.12-0.589 0.027-0.779-0.294-0.779h-0.097l-0.306 1.45z"></path>
        <path fill="#e30613" d="M14.241 7.664l-0.41 1.925h-0.29l0.41-1.925h0.29z"></path>
        <path fill="#e30613" d="M15.364 9.062c-0.060 0.217-0.204 0.558-0.615 0.558-0.396 0-0.581-0.304-0.42-1.049 0.118-0.545 0.341-0.94 0.756-0.94 0.423 0 0.471 0.335 0.449 0.543h-0.284c0.002-0.102 0.015-0.299-0.194-0.299-0.207 0-0.346 0.279-0.435 0.712-0.11 0.532-0.067 0.788 0.153 0.788 0.186 0 0.274-0.219 0.3-0.313h0.289z"></path>
        <path fill="#e30613" d="M15.903 9.055l-0.226 0.534h-0.294c0 0 0.839-1.925 0.839-1.925h0.391l0.043 1.925h-0.284l-0.004-0.534h-0.467zM16.364 8.806c-0.004-0.411-0.004-0.735 0.004-0.913h-0.008c-0.061 0.182-0.196 0.519-0.356 0.913h0.359z"></path>
        <path fill="#e30613" d="M17.247 7.664h0.29l-0.355 1.672h0.667l-0.081 0.253h-0.931l0.41-1.925z"></path>
        <path fill="#e30613" d="M19.669 9.062c-0.060 0.217-0.204 0.558-0.615 0.558-0.396 0-0.582-0.304-0.42-1.049 0.118-0.545 0.341-0.94 0.756-0.94 0.423 0 0.472 0.335 0.449 0.543h-0.284c0.002-0.102 0.015-0.299-0.194-0.299-0.207 0-0.346 0.279-0.435 0.712-0.11 0.532-0.067 0.788 0.153 0.788 0.186 0 0.274-0.219 0.3-0.313h0.289z"></path>
        <path fill="#e30613" d="M20.877 8.701h-0.626l-0.133 0.634h0.735l-0.093 0.253h-0.982l0.41-1.925h0.94l-0.057 0.253h-0.654l-0.11 0.531h0.626l-0.055 0.254z"></path>
        <path fill="#e30613" d="M20.994 9.589l0.41-1.925h0.339c0.186 1.093 0.228 1.385 0.236 1.489h0.003c0.036-0.241 0.105-0.577 0.172-0.892l0.128-0.597h0.266l-0.41 1.925h-0.324c-0.184-1.126-0.226-1.455-0.237-1.56h-0.003c-0.038 0.239-0.103 0.588-0.177 0.934l-0.134 0.626h-0.27z"></path>
        <path fill="#e30613" d="M23.086 7.917h-0.406l0.055-0.253h1.1l-0.055 0.253h-0.404l-0.355 1.672h-0.29l0.355-1.672z"></path>
        <path fill="#e30613" d="M24.734 8.701h-0.626l-0.133 0.634h0.735l-0.093 0.253h-0.982l0.41-1.925h0.94l-0.057 0.253h-0.654l-0.11 0.531h0.626l-0.055 0.254z"></path>
        <path fill="#e30613" d="M25.32 8.732l-0.18 0.857h-0.29l0.41-1.925h0.49c0.406 0 0.545 0.26 0.473 0.58-0.061 0.274-0.235 0.351-0.348 0.385 0.135 0.064 0.195 0.202 0.138 0.486-0.045 0.228-0.071 0.36-0.076 0.474h-0.277c-0.002-0.069 0.010-0.194 0.071-0.487 0.054-0.266 0.006-0.37-0.211-0.37h-0.201zM25.373 8.492h0.18c0.201 0 0.335-0.053 0.379-0.263 0.039-0.189-0.032-0.326-0.244-0.326h-0.19l-0.124 0.588z"></path>
        <path fill="#fff" d="M7.071 23.959l0.033-0.152 0.612 0.002 0.097-0.449-0.612-0.002 0.033-0.152 1.449 0.004-0.033 0.152-0.695-0.002-0.097 0.449 0.695 0.002-0.033 0.152-1.449-0.004z"></path>
        <path fill="#fff" d="M8.221 22.116l-0.1 0.462 0.555 0.001 0.111-0.513 0.136 0.021-0.139 0.643-1.449-0.004 0.137-0.636 0.142 0-0.105 0.485 0.47 0.001 0.1-0.462 0.141 0.001z"></path>
        <path fill="#fff" d="M8.59 21.499l0.438 0.102-0.033 0.152c0 0-1.376-0.339-1.376-0.339l0.043-0.197 1.523-0.34-0.035 0.161-0.481 0.101-0.078 0.36zM8.52 21.17c-0.373 0.079-0.611 0.131-0.73 0.149l-0.001 0.005c0.122 0.019 0.37 0.077 0.667 0.145l0.065-0.299z"></path>
        <path fill="#fff" d="M7.812 20.516l0.033-0.152 1.309 0.004 0.107-0.495 0.135 0.022-0.135 0.625-1.448-0.004z"></path>
        <path fill="#fff" d="M8.172 19.506l-0.067 0.309-0.142-0 0.166-0.769 0.142 0-0.067 0.309 1.307 0.004-0.033 0.152-1.306-0.004z"></path>
        <path fill="#fff" d="M8.206 18.693l0.033-0.152 0.612 0.002 0.097-0.449-0.612-0.002 0.033-0.152 1.449 0.004-0.033 0.152-0.695-0.002-0.097 0.449 0.695 0.002-0.033 0.152-1.449-0.004z"></path>
        <path fill="#fff" d="M9.996 17.11l-0.033 0.152-0.552-0.001c-0.014 0-0.028 0.003-0.038 0.007l-0.936 0.349 0.037-0.171c0.265-0.094 0.634-0.226 0.775-0.268-0.13-0.049-0.444-0.185-0.658-0.275l0.035-0.161 0.783 0.359c0.007 0.004 0.019 0.007 0.036 0.007l0.551 0.002z"></path>
        <path fill="#fff" d="M8.824 15.825l0.078-0.361c0.045-0.207 0.202-0.334 0.425-0.334 0.194 0.001 0.259 0.090 0.271 0.171 0.061-0.105 0.186-0.215 0.41-0.215 0.261 0.001 0.392 0.152 0.34 0.392l-0.076 0.35-1.448-0.004zM9.494 15.518c0.038-0.174-0.030-0.238-0.185-0.238-0.145-0-0.25 0.072-0.282 0.217l-0.039 0.178 0.472 0.001 0.034-0.159zM10.174 15.679l0.040-0.186c0.035-0.163-0.049-0.252-0.239-0.252-0.194-0.001-0.311 0.094-0.351 0.28l-0.034 0.157 0.583 0.001z"></path>
        <path fill="#fff" d="M9.948 13.911c0.494 0.001 0.734 0.115 0.67 0.415-0.062 0.285-0.343 0.402-0.843 0.401-0.494-0.001-0.705-0.141-0.647-0.412 0.062-0.287 0.329-0.405 0.82-0.403zM9.806 14.57c0.413 0.001 0.638-0.078 0.675-0.249 0.038-0.177-0.148-0.251-0.564-0.252-0.422-0.001-0.612 0.078-0.649 0.25-0.036 0.169 0.144 0.25 0.539 0.252z"></path>
        <path fill="#fff" d="M9.328 13.485l0.066-0.308c0.069-0.319 0.333-0.462 0.786-0.461 0.492 0.001 0.734 0.132 0.658 0.487l-0.062 0.286-1.449-0.004zM10.674 13.337l0.027-0.127c0.055-0.253-0.138-0.334-0.549-0.335-0.385-0.001-0.575 0.093-0.626 0.33l-0.028 0.129 1.175 0.004z"></path>
        <path fill="#fff" d="M11.108 11.955l-0.033 0.152-0.552-0.001c-0.014 0-0.028 0.003-0.038 0.007l-0.936 0.349 0.037-0.171c0.265-0.094 0.634-0.226 0.775-0.268-0.13-0.049-0.444-0.185-0.658-0.275l0.035-0.161 0.783 0.359c0.007 0.004 0.019 0.007 0.036 0.007l0.551 0.001z"></path>
    </svg>
    <svg id="hospital" viewBox="0 0 32 32" x="0" y="0">
        <path d="M19.246 7.378h-1.638v-1.638c0-0.276-0.224-0.5-0.5-0.5v0h-2.216c-0.276 0-0.5 0.224-0.5 0.5v0 1.638h-1.638c-0.276 0-0.5 0.224-0.5 0.5v0 2.216c0 0.276 0.224 0.5 0.5 0.5v0h1.638v1.639c0 0.276 0.224 0.5 0.5 0.5v0h2.216c0.276 0 0.5-0.224 0.5-0.5v0-1.639h1.638c0.276 0 0.5-0.224 0.5-0.5v0-2.216c0-0.276-0.224-0.5-0.5-0.5v0zM18.746 9.594h-1.638c-0.276 0-0.5 0.224-0.5 0.5v0 1.639h-1.216v-1.639c0-0.276-0.224-0.5-0.5-0.5v0h-1.638v-1.216h1.638c0.276 0 0.5-0.224 0.5-0.5v0-1.638h1.216v1.638c0 0.276 0.224 0.5 0.5 0.5v0h1.638z"></path>
        <path d="M1.479 12.156c-0.276 0-0.5 0.224-0.5 0.5v0 18.844c0 0.276 0.224 0.5 0.5 0.5s0.5-0.224 0.5-0.5v0-18.844c0-0.276-0.224-0.5-0.5-0.5v0z"></path>
        <path d="M7.897 13.031h-4.392c-0.276 0-0.5 0.224-0.5 0.5v0 1.867c0 0.276 0.224 0.5 0.5 0.5v0h4.392c0.276 0 0.5-0.224 0.5-0.5v0-1.864c0-0.001 0-0.002 0-0.003 0-0.276-0.224-0.5-0.5-0.5 0 0 0 0 0 0v0zM7.397 14.897h-3.392v-0.867h3.395z"></path>
        <path d="M7.897 17.633h-4.392c-0.276 0-0.5 0.224-0.5 0.5v0 1.867c0 0.276 0.224 0.5 0.5 0.5v0h4.392c0.001 0 0.002 0 0.003 0 0.276 0 0.5-0.224 0.5-0.5 0 0 0 0 0 0v0-1.867c0 0 0 0 0 0 0-0.276-0.224-0.5-0.5-0.5-0.001 0-0.002 0-0.003 0h0zM7.397 19.5h-3.392v-0.867h3.395z"></path>
        <path d="M18.196 20.133h-4.392c-0.276 0-0.5 0.224-0.5 0.5v0 10.867c0 0.276 0.224 0.5 0.5 0.5s0.5-0.224 0.5-0.5v0-10.367h3.392v10.367c0 0.276 0.224 0.5 0.5 0.5s0.5-0.224 0.5-0.5v0-10.867c0-0.276-0.224-0.5-0.5-0.5v0z"></path>
        <path d="M7.897 22.236h-4.392c-0.276 0-0.5 0.224-0.5 0.5v0 1.867c0 0.276 0.224 0.5 0.5 0.5v0h4.392c0.276 0 0.5-0.224 0.5-0.5v0-1.869c-0.002-0.275-0.225-0.497-0.5-0.497 0 0 0 0 0 0v0zM7.397 24.103h-3.392v-0.867h3.395z"></path>
        <path d="M7.897 26.838h-4.392c-0.276 0-0.5 0.224-0.5 0.5v0 1.867c0 0.276 0.224 0.5 0.5 0.5v0h4.392c0.276 0 0.5-0.224 0.5-0.5v0-1.867c0-0.276-0.224-0.5-0.5-0.5v0zM7.397 28.705h-3.392v-0.867h3.395z"></path>
        <path d="M30.521 12.156c-0.276 0-0.5 0.224-0.5 0.5v0 18.844c0 0.276 0.224 0.5 0.5 0.5s0.5-0.224 0.5-0.5v0-18.844c0-0.276-0.224-0.5-0.5-0.5v0z"></path>
        <path d="M31.5 8.486h-9.261v-4.406h1.575c0.276 0 0.5-0.224 0.5-0.5v0-3.080c0-0.276-0.224-0.5-0.5-0.5v0h-15.628c-0.276 0-0.5 0.224-0.5 0.5v0 3.080c0 0.276 0.224 0.5 0.5 0.5v0h1.575v4.406h-9.261c-0.274 0-0.497 0.221-0.5 0.495v0l-0.021 2.26c0 0.001-0 0.003-0 0.004 0 0.276 0.224 0.5 0.5 0.501h9.282v19.754c0 0.276 0.224 0.5 0.5 0.5s0.5-0.224 0.5-0.5v0-27.42h1.4c0.276 0 0.5-0.224 0.5-0.5s-0.224-0.5-0.5-0.5v0h-3.475v-2.080h14.628v2.080h-9.341c-0.276 0-0.5 0.224-0.5 0.5s0.224 0.5 0.5 0.5v0h7.267v27.42c0 0.276 0.224 0.5 0.5 0.5s0.5-0.224 0.5-0.5v0-19.754h9.261c0.276 0 0.5-0.224 0.5-0.5v0-2.26c0-0.276-0.224-0.5-0.5-0.5v0zM0.984 10.746l0.011-1.26h8.766v1.26zM31 10.746h-8.761v-1.26h8.761z"></path>
        <path d="M28.495 13.031h-4.392c-0.276 0-0.5 0.224-0.5 0.5v0 1.867c0 0.276 0.224 0.5 0.5 0.5v0h4.392c0.276 0 0.5-0.224 0.5-0.5v0-1.864c0-0.001 0-0.002 0-0.003 0-0.276-0.224-0.5-0.5-0.5 0 0 0 0 0 0v0zM27.995 14.897h-3.395v-0.867h3.392z"></path>
        <path d="M28.495 17.633h-4.392c-0.276 0-0.5 0.224-0.5 0.5v0 1.867c0 0.276 0.224 0.5 0.5 0.5v0h4.392c0.276 0 0.5-0.224 0.5-0.5v0-1.867c0-0.276-0.224-0.5-0.5-0.5v0zM27.995 19.5h-3.395v-0.867h3.392z"></path>
        <path d="M28.495 22.236h-4.392c-0.276 0-0.5 0.224-0.5 0.5v0 1.867c0 0.276 0.224 0.5 0.5 0.5v0h4.392c0.276 0 0.5-0.224 0.5-0.5v0-1.869c-0.002-0.275-0.225-0.497-0.5-0.497 0 0 0 0 0 0v0zM27.995 24.103h-3.395v-0.867h3.392z"></path>
        <path d="M28.495 26.838h-4.392c-0.276 0-0.5 0.224-0.5 0.5v0 1.867c0 0.276 0.224 0.5 0.5 0.5v0h4.392c0.276 0 0.5-0.224 0.5-0.5v0-1.867c0-0.276-0.224-0.5-0.5-0.5v0zM27.995 28.705h-3.395v-0.867h3.392z"></path>
        <path d="M18.196 14.899h-4.392c-0.276 0-0.5 0.224-0.5 0.5s0.224 0.5 0.5 0.5v0h4.392c0.276 0 0.5-0.224 0.5-0.5s-0.224-0.5-0.5-0.5v0z"></path>
        <path d="M18.196 17.515h-4.392c-0.276 0-0.5 0.224-0.5 0.5s0.224 0.5 0.5 0.5v0h4.392c0.276 0 0.5-0.224 0.5-0.5s-0.224-0.5-0.5-0.5v0z"></path>
    </svg>
    <svg id="doctor-bag" viewBox="0 0 32 32" x="0" y="0">
        <path d="M18.667 2.667h-5.333c-2.209 0-4 1.791-4 4v0 1.333h-2.667c-2.209 0-4 1.791-4 4v0 13.333c0 2.209 1.791 4 4 4v0h18.667c2.209 0 4-1.791 4-4v0-13.333c0-2.209-1.791-4-4-4v0h-2.667v-1.333c0-2.209-1.791-4-4-4v0zM12 6.667c0-0.736 0.597-1.333 1.333-1.333v0h5.333c0.736 0 1.333 0.597 1.333 1.333v0 1.333h-8zM26.667 12v13.333c0 0.736-0.597 1.333-1.333 1.333v0h-18.667c-0.736 0-1.333-0.597-1.333-1.333v0-13.333c0-0.736 0.597-1.333 1.333-1.333v0h18.667c0.736 0 1.333 0.597 1.333 1.333v0zM17.333 17.333h2.667v2.667h-2.667v2.667h-2.667v-2.667h-2.667v-2.667h2.667v-2.667h2.667z"></path>
    </svg>
    <svg id="doctor-stethoscope" viewBox="0 0 32 32" x="0" y="0">
        <path d="M26.5 12.018c-1.484 0-2.715 1.083-2.954 2.5h-0.038c-2.206 0-4 1.795-4 4v8.483c0 2.206-1.793 4-3.995 4s-3.995-1.794-3.995-4v-9.544c4.221-0.715 7.497-10.265 7.985-13.379 0.128-0.814-0.116-1.63-0.687-2.297-0.686-0.801-1.735-1.28-2.804-1.28h-1.405c0-0.276-1.498-0.5-1.498-0.5-0.276 0-0.499 0.224-0.499 0.5v1c0 0.276 0.224 0.5 0.499 0.5 0 0 1.498-0.224 1.498-0.5h1.405c0.77 0 1.552 0.357 2.044 0.93 0.267 0.313 0.564 0.825 0.459 1.492-0.585 3.733-4.116 12.577-7.497 12.577s-6.912-8.844-7.497-12.578c-0.104-0.667 0.192-1.179 0.459-1.492 0.491-0.574 1.274-0.931 2.044-0.931h1.591c0 0.276 1.498 0.5 1.498 0.5 0.276 0 0.499-0.224 0.499-0.5v-1c0-0.276-0.224-0.5-0.499-0.5 0 0-1.498 0.224-1.498 0.5h-1.591c-1.070 0-2.118 0.479-2.804 1.281-0.571 0.667-0.814 1.483-0.687 2.297 0.488 3.114 3.763 12.663 7.985 13.378v9.544c0 2.757 2.241 5 4.995 5s4.995-2.243 4.995-5v-8.483c0-1.654 1.346-3 3-3h0.038c0.239 1.417 1.471 2.5 2.954 2.5 1.654 0 3-1.346 3-3s-1.345-3-2.999-3zM26.5 17.517c-1.207 0-2.217-0.86-2.45-2h1.588c0.173 0.297 0.492 0.5 0.861 0.5 0.552 0 1-0.448 1-1s-0.448-1-1-1c-0.369 0-0.688 0.203-0.861 0.5h-1.588c0.233-1.14 1.242-2 2.45-2 1.379 0 2.5 1.121 2.5 2.5s-1.121 2.5-2.5 2.5z"></path>
    </svg>
    <svg id="plus-icon"  viewBox="0 0 32 32" x="0" y="0">
        <path d="M23.813 14.75h-6.563v-6.563c0-0.688-0.563-1.25-1.25-1.25s-1.25 0.563-1.25 1.25v6.563h-6.563c-0.688 0-1.25 0.563-1.25 1.25s0.563 1.25 1.25 1.25h6.563v6.563c0 0.688 0.563 1.25 1.25 1.25s1.25-0.563 1.25-1.25v-6.563h6.563c0.688 0 1.25-0.563 1.25-1.25s-0.563-1.25-1.25-1.25z"></path>
    </svg>
    <svg id="location-icon" viewBox="0 0 32 32" x="0" y="0">
        <path d="M15.999 0c-6.495 0-11.78 5.285-11.78 11.781 0 1.694 0.347 3.312 1.030 4.809 2.945 6.445 8.593 13.25 10.254 15.182 0.124 0.144 0.306 0.228 0.497 0.228s0.372-0.083 0.497-0.228c1.66-1.932 7.308-8.736 10.254-15.182 0.684-1.497 1.030-3.114 1.030-4.809-0.001-6.496-5.286-11.781-11.781-11.781zM15.999 17.9c-3.374 0-6.119-2.745-6.119-6.119s2.745-6.12 6.119-6.12 6.119 2.745 6.119 6.12c0 3.374-2.745 6.119-6.119 6.119z"></path>
    </svg>
    <svg id="icon-arrow-up" viewBox="0 0 24 24" x="0" y="0">
        <path d="M12,20c-4.41,0-8-3.59-8-8s3.59-8,8-8s8,3.59,8,8S16.41,20,12,20 M12,22c5.52,0,10-4.48,10-10c0-5.52-4.48-10-10-10 C6.48,2,2,6.48,2,12C2,17.52,6.48,22,12,22L12,22z M11,12l0,4h2l0-4h3l-4-4l-4,4H11z"></path>
    </svg>
</svg>